<svg width="98" height="18" viewBox="0 0 98 18" fill="none" xmlns="http://www.w3.org/2000/svg">
<path d="M9 0L12.1158 4.7114L17.5595 6.21885L14.0416 10.6381L14.2901 16.2812L9 14.301L3.70993 16.2812L3.95845 10.6381L0.440492 6.21885L5.88415 4.7114L9 0Z" fill="#E60000"/>
<path d="M29 0L32.1158 4.7114L37.5595 6.21885L34.0416 10.6381L34.2901 16.2812L29 14.301L23.7099 16.2812L23.9584 10.6381L20.4405 6.21885L25.8842 4.7114L29 0Z" fill="#E60000"/>
<path d="M49 0L52.1158 4.7114L57.5595 6.21885L54.0416 10.6381L54.2901 16.2812L49 14.301L43.7099 16.2812L43.9584 10.6381L40.4405 6.21885L45.8842 4.7114L49 0Z" fill="#E60000"/>
<path d="M69 0L72.1158 4.7114L77.5595 6.21885L74.0416 10.6381L74.2901 16.2812L69 14.301L63.7099 16.2812L63.9584 10.6381L60.4405 6.21885L65.8842 4.7114L69 0Z" fill="#E60000"/>
<path d="M83.2694 16.2812L88.5595 14.301V0L85.4437 4.7114L80 6.21885L83.518 10.6381L83.2694 16.2812Z" fill="#E60000"/>
<path d="M91.6754 4.7114L88.5596 0V14.301L93.8496 16.2812L93.6011 10.6381L97.1191 6.21885L91.6754 4.7114Z" fill="#E60000"/>
</svg>
