<svg width="28" height="28" viewBox="0 0 28 28" fill="none" xmlns="http://www.w3.org/2000/svg">
<path d="M7.738 11.9584C8.67874 11.9584 9.52756 11.4382 10.1081 10.698C11.0101 9.54785 12.147 8.59067 13.4465 7.89862C14.289 7.44994 15.02 6.78337 15.3745 5.89712C15.6226 5.27699 15.75 4.61522 15.75 3.94732V3.20837C15.75 2.72512 16.1418 2.33337 16.625 2.33337C18.0747 2.33337 19.25 3.50863 19.25 4.95837C19.25 6.30194 18.9472 7.57478 18.4061 8.71236C18.0962 9.36376 18.5309 10.2084 19.2522 10.2084M19.2522 10.2084H22.899C24.0968 10.2084 25.1689 11.018 25.2957 12.209C25.3481 12.7016 25.375 13.2019 25.375 13.7084C25.375 17.0306 24.2178 20.0825 22.2845 22.4831C21.8323 23.0446 21.1332 23.3334 20.4123 23.3334H15.727C15.1627 23.3334 14.6021 23.2424 14.0668 23.064L10.4332 21.8528C9.89791 21.6743 9.33732 21.5834 8.77304 21.5834H6.88824M19.2522 10.2084H16.625M6.88824 21.5834C6.98485 21.822 7.08999 22.0564 7.20327 22.2859C7.43326 22.7521 7.11223 23.3334 6.59245 23.3334H5.53337C4.49654 23.3334 3.5349 22.729 3.23232 21.7373C2.83743 20.4431 2.625 19.0693 2.625 17.6459C2.625 15.8347 2.96894 14.1038 3.59507 12.515C3.95097 11.6119 4.86189 11.0834 5.83258 11.0834H7.0608C7.61138 11.0834 7.93019 11.7319 7.64435 12.2025C6.6802 13.7898 6.125 15.653 6.125 17.6459C6.125 19.0383 6.39604 20.3674 6.88824 21.5834Z" stroke="white" stroke-width="2" stroke-linecap="round" stroke-linejoin="round"/>
</svg>
