<svg width="28" height="28" viewBox="0 0 28 28" fill="none" xmlns="http://www.w3.org/2000/svg">
<path d="M22.2997 6.57535C26.4002 10.6759 26.4002 17.3241 22.2997 21.4246M19.2064 9.66904C21.5984 12.061 21.5984 15.9391 19.2064 18.3311M7.875 9.62504L13.3813 4.11875C13.9325 3.56753 14.875 3.95793 14.875 4.73747V23.2626C14.875 24.0421 13.9325 24.4325 13.3813 23.8813L7.875 18.375H5.26056C4.23466 18.375 3.27356 17.7842 3.0011 16.7951C2.75595 15.9052 2.625 14.9679 2.625 14C2.625 13.0322 2.75595 12.0949 3.0011 11.205C3.27356 10.2159 4.23466 9.62504 5.26056 9.62504H7.875Z" stroke="white" stroke-width="2" stroke-linecap="round" stroke-linejoin="round"/>
</svg>
